<svg width="14" height="14" viewBox="0 0 14 14" fill="none" xmlns="http://www.w3.org/2000/svg">
<g clip-path="url(#clip0_2606_13370)">
<path fill-rule="evenodd" clip-rule="evenodd" d="M6.15327 1.26295C7.20953 0.529895 8.62988 1.30424 8.60577 2.57983V11.427V11.4409C8.57765 12.7114 7.1082 13.4613 6.065 12.7373C6.03668 12.7177 6.01004 12.6957 5.98535 12.6717L2.82292 9.59264H1.60577C0.724612 9.59264 0 8.86309 0 7.98389V6.01639C0 5.13718 0.724612 4.40764 1.60577 4.40764H2.82764L6.07948 1.32297C6.10252 1.30112 6.12718 1.28105 6.15327 1.26295ZM7.35595 2.55841C7.362 2.30342 7.10304 2.15775 6.89626 2.27111L3.50706 5.48608C3.39093 5.59623 3.23698 5.65764 3.07692 5.65764H1.60577C1.41854 5.65764 1.25 5.82396 1.25 6.01639V7.98389C1.25 8.17632 1.41854 8.34264 1.60577 8.34264H3.07692C3.23979 8.34264 3.39622 8.40621 3.51292 8.51983L6.81052 11.7305C6.90863 11.7828 7.03024 11.7835 7.14798 11.7235C7.27721 11.6576 7.35109 11.5441 7.35577 11.4183V2.57325L7.35595 2.55841ZM13.7788 4.99836C14.0717 5.29125 14.0717 5.76612 13.7788 6.05902L12.838 6.99984L13.7788 7.94066C14.0717 8.23356 14.0717 8.70843 13.7788 9.00132C13.4859 9.29422 13.011 9.29422 12.7181 9.00132L11.7773 8.0605L10.8365 9.00132C10.5436 9.29422 10.0687 9.29422 9.77582 9.00132C9.48293 8.70843 9.48293 8.23356 9.77582 7.94066L10.7166 6.99984L9.77582 6.05902C9.48293 5.76612 9.48293 5.29125 9.77582 4.99836C10.0687 4.70546 10.5436 4.70546 10.8365 4.99836L11.7773 5.93918L12.7181 4.99836C13.011 4.70546 13.4859 4.70546 13.7788 4.99836Z" fill="black"/>
</g>
<defs>
<clipPath id="clip0_2606_13370">
<rect width="14" height="14" fill="white"/>
</clipPath>
</defs>
</svg>
