<svg width="1366" height="300" viewBox="0 0 1366 300" fill="none" xmlns="http://www.w3.org/2000/svg">
<path d="M16.79 294.161C12.19 294.161 8.28 291.861 5.06 287.261C1.99333 282.508 0.46 277.831 0.46 273.231L0.69 248.621L0 226.311V119.361C0 114.608 0.843333 109.778 2.53 104.871C3.60333 100.884 5.52 98.3543 8.28 97.281C11.1933 96.0543 14.72 95.3643 18.86 95.211C23.1533 95.211 26.8333 96.2843 29.9 98.431C33.12 100.424 35.0367 103.721 35.65 108.321C35.65 124.421 35.42 136.304 34.96 143.971C34.6533 151.484 34.1167 159.304 33.35 167.431L31.28 197.561C30.82 210.594 30.4367 223.628 30.13 236.661C29.9767 249.694 29.67 262.728 29.21 275.761C29.21 280.054 28.2133 284.118 26.22 287.951C24.38 291.784 21.2367 293.854 16.79 294.161Z" fill="white"/>
<path d="M172.022 299.221C170.029 299.221 168.112 298.914 166.272 298.301C164.585 297.688 162.899 296.154 161.212 293.701C155.539 280.208 151.859 265.871 150.172 250.691C148.639 235.511 147.872 220.638 147.872 206.071L148.332 188.591C148.639 176.478 148.792 162.371 148.792 146.271C148.485 145.351 148.179 144.738 147.872 144.431C147.719 144.124 147.105 143.971 146.032 143.971C123.645 144.278 104.709 145.044 89.222 146.271L59.322 148.571L56.792 148.341C51.8854 148.034 48.1287 147.344 45.522 146.271C43.0687 145.198 41.842 142.361 41.842 137.761V131.091C42.4554 121.584 46.672 115.298 54.492 112.231C61.5454 109.471 68.752 108.014 76.112 107.861L99.572 105.791C132.692 102.878 158.222 101.421 176.162 101.421C188.275 101.421 200.312 101.881 212.272 102.801C217.945 102.801 223.005 104.871 227.452 109.011C231.899 113.151 234.122 117.751 234.122 122.811C233.355 129.404 230.365 133.544 225.152 135.231C220.092 136.918 214.112 137.838 207.212 137.991C199.085 138.298 194.792 138.758 194.332 139.371C193.872 139.984 193.565 140.674 193.412 141.441C186.819 176.554 183.522 209.674 183.522 240.801L183.982 267.481L184.672 273.921C185.285 277.908 185.592 281.741 185.592 285.421C185.592 290.174 184.135 293.624 181.222 295.771C178.462 298.071 175.395 299.221 172.022 299.221ZM96.122 293.931C85.082 293.931 74.6554 290.941 64.842 284.961C55.182 278.828 48.4354 270.854 44.602 261.041C40.922 251.074 39.082 240.724 39.082 229.991C39.082 221.864 40.3854 213.354 42.992 204.461C45.5987 195.568 49.432 187.288 54.492 179.621C59.552 171.954 65.6087 165.744 72.662 160.991C79.8687 156.084 87.9954 153.631 97.042 153.631C106.549 153.631 115.365 156.698 123.492 162.831C128.859 168.044 132.309 173.948 133.842 180.541C135.375 186.981 136.142 193.344 136.142 199.631C136.142 208.678 134.532 217.571 131.312 226.311C129.472 231.678 126.865 235.511 123.492 237.811C120.272 239.958 115.672 241.031 109.692 241.031L101.412 240.341C97.272 239.728 93.0554 239.421 88.762 239.421C77.722 239.421 72.1254 239.498 71.972 239.651C71.8187 239.804 71.742 240.264 71.742 241.031L71.972 243.331C72.2787 250.078 74.1187 256.134 77.492 261.501C80.252 264.721 83.472 266.868 87.152 267.941C90.832 268.861 94.972 269.321 99.572 269.321C103.405 268.094 106.395 266.484 108.542 264.491C110.689 262.498 112.989 261.501 115.442 261.501C118.509 261.501 121.192 262.651 123.492 264.951C125.945 267.251 127.172 270.164 127.172 273.691C127.172 277.678 125.639 281.128 122.572 284.041C119.659 286.954 116.132 289.178 111.992 290.711C108.005 292.398 104.172 293.394 100.492 293.701L96.122 293.931ZM107.622 216.191C108.695 216.191 109.385 215.501 109.692 214.121C110.765 209.368 111.302 203.848 111.302 197.561C111.302 195.568 110.995 193.114 110.382 190.201C109.769 187.288 108.695 184.758 107.162 182.611C105.629 180.311 103.482 179.161 100.722 179.161C97.3487 179.161 93.5154 181.538 89.222 186.291C85.6954 189.818 83.0887 193.421 81.402 197.101C79.7154 200.628 78.3354 204.384 77.262 208.371L75.652 213.661C75.652 214.428 79.562 214.811 87.382 214.811H89.912C95.7387 214.811 101.642 215.271 107.622 216.191Z" fill="white"/>
<path d="M261.781 286.341H253.501C247.368 286.341 241.771 284.271 236.711 280.131C231.805 275.991 229.045 270.318 228.431 263.111C228.431 259.431 229.428 256.748 231.421 255.061C233.415 253.221 236.328 251.994 240.161 251.381C243.841 251.381 247.138 253.068 250.051 256.441C250.971 258.894 252.505 260.121 254.651 260.121C256.798 259.968 258.715 259.661 260.401 259.201C262.088 258.588 263.468 257.361 264.541 255.521C266.381 252.301 267.301 248.928 267.301 245.401C267.301 242.488 266.381 239.651 264.541 236.891C262.701 233.978 259.788 232.521 255.801 232.521L240.161 234.361C229.121 233.441 221.378 230.758 216.931 226.311C212.485 221.864 209.878 213.508 209.111 201.241C209.111 189.588 212.561 178.471 219.461 167.891C226.361 157.311 236.865 149.721 250.971 145.121C253.271 144.508 255.571 144.201 257.871 144.201C263.545 144.814 268.988 145.964 274.201 147.651C279.568 149.338 284.015 151.714 287.541 154.781C291.221 157.848 293.061 161.911 293.061 166.971C293.061 170.651 291.835 174.178 289.381 177.551C286.928 180.771 284.015 182.764 280.641 183.531C277.268 184.144 273.971 184.451 270.751 184.451C265.691 183.838 261.705 182.611 258.791 180.771C256.645 179.084 254.345 178.241 251.891 178.241C246.065 179.468 242.308 181.538 240.621 184.451C239.088 187.211 238.168 190.968 237.861 195.721L237.171 200.551C237.171 202.851 238.398 204.768 240.851 206.301C243.305 207.681 245.758 208.371 248.211 208.371L254.421 207.451C257.028 206.684 260.248 206.301 264.081 206.301C287.081 207.528 298.581 220.638 298.581 245.631L297.891 255.061C296.665 262.574 293.061 269.168 287.081 274.841C281.101 280.514 274.125 284.194 266.151 285.881L261.781 286.341Z" fill="white"/>
<path d="M388.519 294.161C383.919 294.161 380.009 291.861 376.789 287.261C373.722 282.508 372.189 277.831 372.189 273.231L372.419 248.621L371.729 226.311V119.361C371.729 114.608 372.572 109.778 374.259 104.871C375.332 100.884 377.249 98.3543 380.009 97.281C382.922 96.0543 386.449 95.3643 390.589 95.211C394.882 95.211 398.562 96.2843 401.629 98.431C404.849 100.424 406.765 103.721 407.379 108.321C407.379 124.421 407.149 136.304 406.689 143.971C406.382 151.484 405.845 159.304 405.079 167.431L403.009 197.561C402.549 210.594 402.165 223.628 401.859 236.661C401.705 249.694 401.399 262.728 400.939 275.761C400.939 280.054 399.942 284.118 397.949 287.951C396.109 291.784 392.965 293.854 388.519 294.161Z" fill="white"/>
<path d="M457.271 288.181C448.837 288.181 440.864 285.728 433.351 280.821C418.324 269.168 410.811 252.531 410.811 230.911C410.811 220.638 412.881 210.748 417.021 201.241C421.161 191.734 427.064 183.914 434.731 177.781C442.551 171.648 452.057 168.581 463.251 168.581L472.221 169.501C482.801 170.881 491.617 175.174 498.671 182.381C505.877 189.434 509.481 198.711 509.481 210.211C509.481 222.171 508.561 232.904 506.721 242.411C504.881 251.764 500.894 260.811 494.761 269.551C490.007 276.298 484.717 280.974 478.891 283.581C473.217 286.188 466.011 287.721 457.271 288.181ZM451.291 263.571L460.951 263.111C469.691 261.884 475.747 256.748 479.121 247.701C482.647 238.501 484.641 228.841 485.101 218.721C485.101 201.701 478.201 193.191 464.401 193.191C461.947 193.191 459.571 193.728 457.271 194.801L454.741 195.721C453.207 195.874 451.751 196.564 450.371 197.791C446.077 203.004 443.087 208.601 441.401 214.581C439.867 220.408 439.101 226.771 439.101 233.671L439.561 242.641C440.174 247.088 441.401 251.688 443.241 256.441C445.081 261.194 447.764 263.571 451.291 263.571Z" fill="white"/>
<path d="M643.188 290.941C641.194 290.941 639.125 290.481 636.978 289.561C634.831 288.641 633.375 287.338 632.608 285.651C623.715 265.411 619.268 235.511 619.268 195.951L619.958 137.761C619.958 136.688 619.804 135.998 619.498 135.691C619.191 135.384 616.431 135.154 611.218 135.001C588.984 135.001 566.215 136.381 542.908 139.141C538.615 139.908 534.244 140.291 529.798 140.291C524.278 139.984 520.061 139.218 517.148 137.991C514.388 136.611 513.008 133.391 513.008 128.331L513.468 119.131C515.001 111.464 518.988 106.404 525.428 103.951C532.021 101.344 539.458 99.7343 547.738 99.121C560.464 98.3543 573.344 97.4343 586.378 96.361C613.978 94.061 635.138 92.911 649.858 92.911C673.165 92.911 687.961 94.1376 694.248 96.591C698.081 98.431 700.841 101.114 702.528 104.641C704.214 108.014 705.058 111.234 705.058 114.301C704.444 120.741 701.531 124.958 696.318 126.951C691.104 128.944 684.818 129.941 677.458 129.941L667.338 130.401C665.651 130.861 664.808 131.781 664.808 133.161C658.061 169.194 654.688 202.084 654.688 231.831C655.454 253.758 655.991 265.871 656.298 268.171C656.758 271.084 656.988 273.921 656.988 276.681C656.681 281.588 655.148 285.191 652.388 287.491C649.628 289.791 646.561 290.941 643.188 290.941ZM563.148 289.101C556.861 289.101 551.111 287.184 545.898 283.351C540.684 279.518 537.388 274.074 536.008 267.021C536.008 262.421 537.004 259.278 538.998 257.591C541.144 255.751 544.288 254.524 548.428 253.911C552.108 253.911 555.098 255.674 557.398 259.201C557.858 259.508 558.241 259.968 558.548 260.581C559.008 261.041 559.545 261.501 560.158 261.961C560.925 262.421 561.844 262.651 562.918 262.651C564.911 262.651 566.674 262.421 568.208 261.961C569.894 261.348 571.198 260.121 572.118 258.281C574.111 254.908 575.108 251.458 575.108 247.931C575.108 245.018 574.264 242.181 572.578 239.421C571.044 236.661 568.361 235.281 564.528 235.281L547.278 236.661C536.391 236.201 528.801 233.671 524.508 229.071C520.368 224.318 517.914 215.808 517.148 203.541C517.148 194.801 519.218 185.984 523.358 177.091C527.651 168.198 534.474 160.761 543.828 154.781C551.494 149.414 558.931 146.731 566.138 146.731C571.964 146.731 579.018 148.648 587.298 152.481C596.498 156.468 601.098 162.371 601.098 170.191C601.098 174.024 599.641 177.628 596.728 181.001C593.968 184.221 590.518 186.061 586.378 186.521L578.098 186.981C575.031 186.981 571.428 185.831 567.288 183.531C564.681 181.844 562.228 181.001 559.928 181.001C554.101 182.228 550.191 184.758 548.198 188.591C546.204 192.271 545.054 196.871 544.748 202.391C544.748 205.151 545.974 207.298 548.428 208.831C551.034 210.364 553.564 211.131 556.018 211.131C558.471 210.824 560.694 210.441 562.688 209.981C565.601 209.214 569.358 208.831 573.958 208.831C585.151 209.444 593.354 213.508 598.568 221.021C603.934 228.381 606.618 237.428 606.618 248.161C605.851 260.581 601.788 270.471 594.428 277.831C587.221 285.191 577.331 288.871 564.758 288.871L563.148 289.101Z" fill="white"/>
<path d="M765.145 288.871L762.385 288.411C758.705 287.491 756.022 285.191 754.335 281.511C752.802 277.678 751.882 273.844 751.575 270.011C750.962 260.351 750.655 250.308 750.655 239.881C750.655 229.301 750.502 218.644 750.195 207.911C750.195 192.118 753.952 181.921 761.465 177.321C765.452 174.868 769.745 173.488 774.345 173.181C777.105 173.181 779.482 174.178 781.475 176.171C783.622 178.164 785.079 180.618 785.845 183.531C786.305 185.831 786.535 188.284 786.535 190.891L786.765 195.721C784.619 218.414 783.392 235.894 783.085 248.161C782.932 254.448 782.472 260.658 781.705 266.791C781.092 272.924 779.559 278.138 777.105 282.431C774.652 286.724 770.665 288.871 765.145 288.871ZM769.975 158.001C766.449 158.001 763.535 156.851 761.235 154.551C758.935 152.251 757.785 149.414 757.785 146.041C757.785 142.668 758.935 139.831 761.235 137.531C763.689 135.078 766.602 133.851 769.975 133.851C773.349 133.851 776.185 135.001 778.485 137.301C780.785 139.601 781.935 142.438 781.935 145.811C781.935 149.184 780.785 152.098 778.485 154.551C776.185 156.851 773.349 158.001 769.975 158.001Z" fill="white"/>
<path d="M887.006 292.551C882.252 292.551 878.649 290.941 876.196 287.721C873.742 284.654 872.516 280.744 872.516 275.991C872.516 253.911 873.436 232.061 875.276 210.441C875.736 206.761 875.966 203.081 875.966 199.401V188.591C875.659 187.211 874.969 186.061 873.896 185.141C872.822 184.221 871.596 183.761 870.216 183.761C865.769 184.681 862.472 186.674 860.326 189.741C858.179 192.654 856.492 196.488 855.266 201.241C847.752 222.708 840.776 244.634 834.336 267.021C833.722 269.168 833.262 271.238 832.956 273.231C831.882 278.444 830.502 282.508 828.816 285.421C827.282 288.181 823.756 289.561 818.236 289.561C814.249 289.101 811.259 288.411 809.266 287.491C807.426 286.571 805.586 284.654 803.746 281.741C798.226 273.461 795.082 264.644 794.316 255.291C791.556 233.978 790.176 217.494 790.176 205.841L790.406 196.871C790.559 192.731 791.402 188.591 792.936 184.451C794.469 180.158 796.692 176.554 799.606 173.641C802.672 170.728 806.506 169.271 811.106 169.271C816.472 169.271 820.689 171.111 823.756 174.791C826.822 178.471 828.356 182.381 828.356 186.521L826.976 206.531H827.666L829.506 200.321C831.652 191.888 834.412 184.451 837.786 178.011C841.312 171.571 847.369 166.434 855.956 162.601C861.169 159.688 865.692 157.464 869.526 155.931C873.359 154.398 878.266 153.324 884.246 152.711C893.906 152.711 901.189 158.001 906.096 168.581C907.782 172.874 908.856 176.938 909.316 180.771C909.776 184.604 910.006 191.044 910.006 200.091C910.006 226.618 906.632 252.991 899.886 279.211C898.659 283.658 897.202 286.878 895.516 288.871C893.829 290.864 890.992 292.091 887.006 292.551Z" fill="white"/>
<path d="M1014.63 291.171H1012.33C1007.73 291.171 1003.59 289.408 999.905 285.881C990.245 276.221 985.032 246.474 984.265 196.641C984.265 184.988 985.109 172.568 986.795 159.381L988.865 123.271C988.865 122.044 988.405 121.201 987.485 120.741C984.572 117.674 983.115 114.454 983.115 111.081C983.115 106.174 985.492 102.418 990.245 99.811C994.999 97.051 1000.6 95.211 1007.04 94.291C1013.48 93.2176 1019.38 92.681 1024.75 92.681C1046.67 92.681 1064.46 100.731 1078.11 116.831C1082.25 121.584 1084.85 126.338 1085.93 131.091C1087 135.691 1087.61 141.441 1087.77 148.341C1087.77 169.654 1079.87 188.131 1064.08 203.771C1060.55 207.144 1058.1 209.598 1056.72 211.131C1055.34 212.664 1052.5 215.271 1048.21 218.951L1048.9 219.871C1054.11 223.398 1057.64 227.614 1059.48 232.521C1061.47 237.428 1062.54 243.024 1062.7 249.311C1062.7 258.664 1059.94 266.868 1054.42 273.921C1045.98 284.348 1032.72 290.098 1014.63 291.171ZM1017.16 209.521C1028.5 204.308 1037.78 196.411 1044.99 185.831C1052.19 175.251 1055.8 164.058 1055.8 152.251C1055.8 147.344 1055.34 142.591 1054.42 137.991C1053.5 133.391 1051.5 129.481 1048.44 126.261C1045.52 123.041 1041.15 120.818 1035.33 119.591C1031.95 119.591 1029.81 121.584 1028.89 125.571C1023.67 148.878 1020.07 172.491 1018.08 196.411C1017.46 200.858 1017.16 205.228 1017.16 209.521ZM1017.62 266.331L1023.6 265.181C1026.51 264.568 1028.81 263.111 1030.5 260.811C1032.34 258.358 1033.26 255.598 1033.26 252.531C1033.1 242.564 1028.89 237.581 1020.61 237.581C1017.54 237.888 1015.85 238.194 1015.55 238.501C1015.39 238.808 1015.32 239.421 1015.32 240.341L1015.09 254.601C1015.09 256.441 1015.32 258.358 1015.78 260.351C1015.93 261.578 1016.01 262.651 1016.01 263.571C1016.01 264.491 1016.08 265.181 1016.24 265.641C1016.54 266.101 1017 266.331 1017.62 266.331Z" fill="white"/>
<path d="M1104.12 294.161C1099.52 294.161 1095.61 291.861 1092.39 287.261C1089.33 282.508 1087.79 277.831 1087.79 273.231L1088.02 248.621L1087.33 226.311V119.361C1087.33 114.608 1088.18 109.778 1089.86 104.871C1090.94 100.884 1092.85 98.3543 1095.61 97.281C1098.53 96.0543 1102.05 95.3643 1106.19 95.211C1110.49 95.211 1114.17 96.2843 1117.23 98.431C1120.45 100.424 1122.37 103.721 1122.98 108.321C1122.98 124.421 1122.75 136.304 1122.29 143.971C1121.99 151.484 1121.45 159.304 1120.68 167.431L1118.61 197.561C1118.15 210.594 1117.77 223.628 1117.46 236.661C1117.31 249.694 1117 262.728 1116.54 275.761C1116.54 280.054 1115.55 284.118 1113.55 287.951C1111.71 291.784 1108.57 293.854 1104.12 294.161Z" fill="white"/>
<path d="M1219.11 290.481C1215.27 290.481 1211.9 289.101 1208.99 286.341C1206.07 283.581 1204.62 280.131 1204.62 275.991L1204.85 270.471L1204.62 264.721C1198.33 271.928 1192.43 277.294 1186.91 280.821C1181.39 284.348 1173.95 286.418 1164.6 287.031C1155.86 287.031 1148.65 283.734 1142.98 277.141C1137.3 270.394 1133.39 262.344 1131.25 252.991C1128.03 242.411 1126.42 231.524 1126.42 220.331C1126.72 208.371 1126.88 191.964 1126.88 171.111C1126.88 167.584 1127.87 164.288 1129.87 161.221C1132.01 158.001 1135.16 156.391 1139.3 156.391C1144.05 156.391 1148.57 157.081 1152.87 158.461C1156.09 160.301 1158.08 162.371 1158.85 164.671C1159.77 166.818 1160.3 169.578 1160.46 172.951V175.481C1160.46 183.608 1159.92 191.581 1158.85 199.401C1157.93 207.068 1157.47 214.811 1157.47 222.631C1157.47 236.891 1158.62 247.854 1160.92 255.521C1162.3 259.508 1164.37 261.501 1167.13 261.501C1172.34 261.501 1177.48 258.281 1182.54 251.841C1192.66 239.268 1200.17 215.578 1205.08 180.771C1205.69 173.411 1207.07 167.431 1209.22 162.831C1211.36 158.078 1215.58 155.701 1221.87 155.701C1226.31 155.854 1230.22 156.468 1233.6 157.541C1238.81 159.228 1241.42 165.821 1241.42 177.321L1236.82 236.661C1236.05 250.768 1234.59 264.721 1232.45 278.521C1232.45 281.281 1231.37 283.964 1229.23 286.571C1227.23 289.178 1223.86 290.481 1219.11 290.481Z" fill="white"/>
<path d="M1304.13 298.071L1294.47 297.611C1290.48 296.844 1287.11 295.388 1284.35 293.241C1281.59 291.094 1280.21 288.181 1280.21 284.501C1280.21 281.434 1281.2 278.674 1283.2 276.221C1285.34 273.768 1288.26 272.541 1291.94 272.541C1294.08 272.694 1295.62 272.848 1296.54 273.001C1297.61 273.154 1298.53 273.308 1299.3 273.461C1300.22 273.614 1301.29 273.691 1302.52 273.691C1307.58 273.691 1311.18 272.081 1313.33 268.861C1315.47 265.641 1316.55 262.268 1316.55 258.741C1316.55 255.981 1316.32 253.528 1315.86 251.381C1315.4 249.234 1314.17 247.394 1312.18 245.861C1309.57 243.868 1306.89 242.641 1304.13 242.181C1301.52 241.568 1298.84 241.261 1296.08 241.261L1291.71 240.801C1288.18 240.494 1285.19 239.268 1282.74 237.121C1280.28 234.821 1278.83 231.984 1278.37 228.611C1278.37 222.324 1282.12 217.801 1289.64 215.041C1295.16 214.274 1299.3 213.124 1302.06 211.591C1304.82 209.904 1308.04 207.144 1311.72 203.311C1317.85 196.258 1321.91 189.281 1323.91 182.381C1325.9 175.481 1326.9 167.354 1326.9 158.001C1326.9 145.121 1323.52 136.994 1316.78 133.621C1310.18 130.094 1303.74 128.331 1297.46 128.331C1293.32 128.331 1289.02 129.098 1284.58 130.631C1280.28 132.164 1276.6 134.464 1273.54 137.531C1270.62 140.598 1269.17 144.584 1269.17 149.491C1269.17 154.244 1267.86 157.694 1265.26 159.841C1262.8 161.834 1260.04 162.831 1256.98 162.831C1252.22 162.831 1249.08 161.374 1247.55 158.461C1246.01 155.394 1245.09 151.408 1244.79 146.501C1244.79 139.448 1246.86 132.778 1251 126.491C1255.14 120.204 1260.58 115.221 1267.33 111.541C1280.97 105.101 1292.17 101.881 1300.91 101.881C1314.71 101.881 1326.44 104.641 1336.1 110.161C1345.76 115.528 1353.04 122.658 1357.95 131.551C1363.01 140.444 1365.54 149.951 1365.54 160.071C1365.54 171.111 1363.08 181.998 1358.18 192.731C1353.42 203.464 1346.37 213.201 1337.02 221.941L1335.64 224.011C1335.64 224.471 1336.1 225.084 1337.02 225.851C1343.61 233.978 1346.91 244.098 1346.91 256.211C1346.91 268.784 1342.84 278.904 1334.72 286.571C1326.74 294.238 1316.55 298.071 1304.13 298.071Z" fill="white"/>
<path d="M1242.7 12.3009L1241.99 33.8818C1241.87 36.8729 1243.72 40.8135 1246.09 42.6597L1260.09 53.5577C1269.04 60.5322 1267.49 68.9261 1256.58 72.1244L1238.13 77.6016C1235.01 78.5291 1231.78 81.8347 1230.89 84.9723L1226.29 101.637C1222.64 114.822 1213.96 115.983 1206.91 104.235L1197.11 87.879C1195.34 84.9234 1191.05 82.5962 1187.56 82.7015L1168.51 83.4203C1154.87 83.9502 1151.08 75.9685 1160.11 65.7601L1171.56 52.8086C1173.71 50.3509 1174.72 45.8425 1173.79 42.7184L1168.31 24.2711C1165.09 13.4111 1171.22 7.50137 1181.95 11.1959L1198.73 16.981C1201.52 17.9328 1205.83 17.3394 1208.27 15.6035L1225.97 3.22713C1235.59 -3.47536 1243.12 0.603931 1242.7 12.3009Z" fill="white"/>
</svg>
