<svg width="110" height="109" viewBox="0 0 110 109" fill="none" xmlns="http://www.w3.org/2000/svg">
<rect width="110" height="109" fill="#1E1E1E"/>
<path d="M64.2454 7.832L73.9582 27.1169C75.2828 29.8016 78.8018 32.3701 81.766 32.8553L99.2769 35.7122C110.475 37.5451 113.132 45.6577 105.09 53.6917L91.523 67.3382C89.2253 69.6494 87.9763 74.0972 88.6988 77.2774L92.6434 94.1101C95.7547 107.434 88.6919 112.612 76.8753 105.678L60.4419 96.0145C57.474 94.2674 52.5909 94.2816 49.5783 96.0461L33.2015 105.805C21.4803 112.807 14.3325 107.616 17.3664 94.3292L21.2129 77.4738C21.9169 74.2895 20.642 69.849 18.3309 67.5513L4.68438 53.984C-3.34946 45.9968 -0.794364 37.869 10.393 35.971L27.887 33.0121C30.7935 32.5098 34.2974 29.9209 35.6064 27.2286L45.2067 7.88742C50.4434 -2.60744 59.0026 -2.63235 64.2454 7.832Z" fill="white"/>
<path d="M74.8301 52.7599L74.5935 54.849C74.3708 55.7029 74.007 56.4141 73.5022 56.9824C72.9975 57.5507 72.3459 57.8088 71.5476 57.7567C70.8824 57.7133 70.2978 57.458 69.7938 56.9908C69.292 56.4904 69.0672 55.8411 69.1193 55.0428C69.1829 54.5793 69.2379 54.2488 69.2842 54.0514C69.3327 53.8207 69.379 53.6233 69.4231 53.4592C69.4694 53.2618 69.5012 53.03 69.5186 52.7639C69.5902 51.6663 69.292 50.8618 68.6239 50.3505C67.9558 49.8393 67.2392 49.5586 66.4742 49.5087C65.8754 49.4696 65.34 49.4848 64.8678 49.5542C64.3956 49.6235 63.9791 49.8636 63.6182 50.2743C63.1489 50.8115 62.8448 51.3762 62.7059 51.9685C62.536 52.5252 62.4314 53.103 62.3923 53.7017L62.2307 54.6432C62.1142 55.4039 61.8058 56.0351 61.3053 56.5369C60.7717 57.0366 60.1357 57.3124 59.3974 57.3644C58.0336 57.2754 57.1056 56.3964 56.6133 54.7274C56.5251 53.5191 56.3343 52.6047 56.0407 51.9843C55.7139 51.3617 55.1608 50.6241 54.3813 49.7715C52.9381 48.3411 51.4822 47.3609 50.0136 46.8307C48.5451 46.3006 46.7963 45.9693 44.7672 45.8369C41.9732 45.6545 40.1625 46.2712 39.3352 47.6869C38.4768 49.0673 38.0031 50.4393 37.914 51.8031C37.8554 52.7012 37.9609 53.6434 38.2306 54.6297C38.5024 55.5828 38.9492 56.4137 39.571 57.1223C40.195 57.7978 41.0392 58.1702 42.1036 58.2397C43.1348 58.307 43.8647 58.6386 44.2935 59.2345C44.6912 59.7949 44.8683 60.4077 44.8248 61.073C44.7575 62.1041 44.397 62.7654 43.7433 63.0567C43.0564 63.3459 42.1785 63.4891 41.1098 63.4861C39.5797 63.3862 38.1621 62.8427 36.8569 61.8556C35.5518 60.8685 34.5479 59.6171 33.8451 58.1014C32.6413 55.0499 32.1013 52.5761 32.2251 50.6801C32.4205 47.6865 33.1854 45.181 34.5196 43.1636C35.8206 41.1441 37.4705 39.6651 39.4692 38.7266C41.47 37.7549 43.5682 37.3407 45.7635 37.484C48.1584 37.6404 50.4853 38.3267 52.7442 39.5431C55.0052 40.7263 57.0175 42.3942 58.781 44.547L59.2105 44.8757C59.3103 44.8822 59.4499 44.7911 59.6292 44.6024C61.4855 43.2872 63.7275 42.7154 66.3553 42.8869C69.0828 43.0649 71.2206 44.0897 72.7686 45.9612C74.3188 47.7994 75.006 50.0657 74.8301 52.7599Z" fill="black"/>
<path d="M45.1918 68.4583C45.2643 87.8586 68.8698 77.2225 70.8698 63.3401" stroke="black" stroke-width="6"/>
</svg>
